<svg id="Layer_1" xmlns="http://www.w3.org/2000/svg" viewBox="0 0 287.6 180.6"><style>.st1{enable-background:new}.st2{fill:#fff}.st3{fill:#3f0d8c}</style><path d="M575.9 322c-10 0-19.9-1.9-29.2-5.6-41.1-16.2-61.4-62.6-45.2-103.7 11.1-28.3 37.3-47.8 67.6-50.4 2.3-.2 4.7-.3 7.1-.3 10 0 19.9 1.9 29.2 5.6 41.1 16.2 61.4 62.6 45.2 103.7-11.1 28.3-37.3 47.8-67.6 50.4-2.4.2-4.7.3-7.1.3zm69.2-69.4l2.6 3.3c.4.5 1 .9 1.6 1h.4c.5 0 1-.2 1.4-.5.5-.3.9-.9 1-1.5.1-.7-.1-1.4-.6-1.9l-2.9-3.7c1.8-2.2 3.2-4.7 3.9-7.4.2-.7.2-1.4-.2-2-.4-.5-1-.9-1.7-1h-.4c-1.2 0-2.2.8-2.5 2-.4 1.6-1.1 3.2-2.1 4.6l-4.1-5.3c1.6-.6 3-1.4 4.2-2.6 1-1 1.6-2.3 1.8-3.6.3-1.7-.1-3.5-1.2-4.9-1.3-1.4-3.1-2.4-5.1-2.6-.6-.1-1.2-.1-1.8-.2-.8 0-1.7.1-2.5.3-1.2.3-2.4 1-3.2 2-.9 1-1.4 2.1-1.6 3.4-.2 1-.1 2 .2 3 .4 1.2.9 2.3 1.6 3.3-1.8.6-3.4 1.6-4.8 2.9-1.1 1.2-1.8 2.6-2 4.2-.3 1.4 0 2.9.6 4.2.7 1.4 1.8 2.5 3.1 3.3 1.5.9 3.2 1.5 4.9 1.8.6.1 1.3.2 1.9.2 1 0 1.9-.1 2.9-.3 1.6-.4 3.2-1.1 4.6-2zm-7.3-2.2c-.4 0-.8 0-1.1-.1-1.1-.1-2.2-.6-3-1.5-.7-.8-1-1.8-.7-2.9.3-1.9 1.5-3.3 3.7-4.2l5.6 7.2c-1.4 1-2.9 1.4-4.5 1.5zm1.1-13.7c-.5-.7-1-1.4-1.3-2.2-.2-.5-.3-1.1-.2-1.7.1-.8.5-1.5 1.1-1.9.5-.3 1-.5 1.6-.5h.6c.7.1 1.3.4 1.7 1 .4.6.5 1.3.4 2-.1.7-.5 1.4-1.1 1.9-.9.6-1.8 1.1-2.8 1.4z" fill="#4fc59a" transform="translate(-496 -161.995)"/><g class="st1"><path class="st2" d="M1023.6 645.2c-1.2-.2-2.3-.3-3.4-.2-1.6.1-2.8.6-3.6 1.4-.9.8-1.2 1.8-1.1 3 .1 1.2.7 2.1 1.9 2.8 1.1.7 2.7 1.3 4.8 1.8 1.5.4 2.8.9 3.9 1.4 1.1.5 2 1.3 2.8 2.4.8 1 1.2 2.4 1.4 4.1.1 1.5-.1 3-.8 4.3-.7 1.3-1.7 2.4-3 3.2-1.4.8-3 1.3-4.9 1.5-1.8.2-3.5 0-5.2-.4-1.7-.4-3.2-1-4.5-1.8l1.4-3.2c1 .7 2.3 1.2 3.7 1.6 1.4.4 2.7.5 3.9.4 1.5-.1 2.9-.7 3.9-1.5 1.1-.9 1.6-2.1 1.4-3.7-.1-1.3-.7-2.3-1.7-3-1-.7-2.5-1.3-4.3-1.9-1.7-.5-3.1-.9-4.2-1.4-1.1-.5-2.1-1.2-3-2.2-.9-1-1.4-2.2-1.5-3.7-.2-2.3.4-4.2 1.9-5.7s3.4-2.4 6-2.8c3.1-.3 6.1.2 8.8 1.6l-1.2 3.1c-1.1-.6-2.2-.9-3.4-1.1zM1037.4 638l2.7 30.9-3.7.3-2.7-30.9 3.7-.3zM1044.9 644.4c.4-.4.9-.7 1.5-.7.6-.1 1.1.1 1.6.5s.7.8.8 1.4c.1.6-.1 1.1-.5 1.5-.4.4-.9.7-1.5.7-.6.1-1.1-.1-1.6-.5s-.8-.8-.8-1.4c-.1-.5.1-1.1.5-1.5zm4 7.1l1.4 16.5-3.7.3-1.4-16.5 3.7-.3zM1067.5 666.4c-1 .4-2 .7-3.1.8-1.8.2-3.4-.1-4.8-.7s-2.6-1.5-3.5-2.8c-.9-1.2-1.4-2.7-1.5-4.5-.1-1.7.1-3.2.8-4.6.7-1.4 1.7-2.5 2.9-3.3 1.3-.8 2.7-1.3 4.2-1.5 2.5-.2 4.7.3 6.4 1.5l-1.7 2.6c-.6-.4-1.2-.6-1.9-.9-.7-.2-1.5-.3-2.3-.2-1 .1-1.9.4-2.6 1-.8.6-1.3 1.3-1.7 2.2-.4.9-.5 1.9-.5 2.9s.4 2 1 2.8c.6.8 1.3 1.4 2.2 1.9.9.4 1.9.6 3 .5 1.4-.1 2.5-.6 3.4-1.5l2.1 2.1c-.6.7-1.4 1.3-2.4 1.7zM1086.3 660.6l2 2.6c-.8.7-1.7 1.2-2.7 1.6-1 .4-2 .7-2.9.8-1.8.2-3.5-.1-4.9-.7-1.4-.6-2.6-1.6-3.4-2.9-.9-1.3-1.4-2.7-1.5-4.4-.1-1.6.1-3.1.8-4.5.7-1.4 1.7-2.6 3-3.5 1.3-.9 2.8-1.4 4.5-1.6 2.2-.2 4 .3 5.6 1.4 1.6 1.1 2.7 2.8 3.4 5l-12.7 5.7c.6.8 1.3 1.4 2.1 1.8.9.4 1.8.5 2.8.5 1.4-.1 2.7-.7 3.9-1.8zm-8.8-7.7c-.9 1.1-1.3 2.5-1.1 4.2 0 .4.1.7.1.9l9.3-4.4c-.5-.9-1.1-1.5-1.9-2-.8-.5-1.7-.7-2.8-.6-1.5.1-2.7.8-3.6 1.9z" transform="translate(-969.996 -573.995)"/></g><path transform="rotate(-74.989 350.438 505.265)" class="st3" d="M639 198h130v130H639z"/><path d="M747 336.6L621.4 303l13-48.4c.4.1.8.2 1.3.3.6.1 1.3.2 1.9.2 1 0 1.9-.1 2.9-.3 1.6-.4 3.2-1 4.6-2l2.6 3.3c.4.5 1 .9 1.6 1h.4c.5 0 1-.2 1.4-.5.5-.3.9-.9 1-1.5.1-.7-.1-1.4-.6-1.9l-2.9-3.7c1.8-2.2 3.2-4.7 3.9-7.4.2-.7.2-1.4-.2-2-.4-.5-1-.9-1.7-1h-.4c-1.2 0-2.2.8-2.5 2-.4 1.6-1.1 3.2-2.1 4.6l-4.1-5.3c1.6-.6 3-1.4 4.2-2.6 1-1 1.6-2.3 1.8-3.6.3-1.7-.1-3.5-1.2-4.9-1.2-1.3-2.7-2.2-4.4-2.4l13.2-49.2L780.6 211 747 336.6zm-109.2-86.2c-.4 0-.8 0-1.1-.1-.4-.1-.7-.1-1.1-.2l1.9-7.1 4.7 6c-1.3.9-2.8 1.3-4.4 1.4zm1.4-13.8l1.6-6.1c.6.1 1.2.5 1.5 1 .4.6.5 1.3.4 2-.1.7-.5 1.4-1.1 1.9-.7.5-1.5.9-2.4 1.2z" fill="#f4554e" transform="translate(-496 -161.995)"/><g class="st1"><path class="st2" d="M1145.6 641.5l7.7 2.1c3.5.9 6.2 2.4 8.1 4.4 1.9 2 3.1 4.2 3.6 6.7s.4 4.9-.3 7.3c-.7 2.7-2 4.9-3.8 6.7-1.8 1.7-3.9 2.9-6.3 3.4-2.4.6-4.9.5-7.3-.2l-9-2.4 7.3-28zm1.7 26.5c2.1.6 4 .6 5.9.3 1.8-.4 3.4-1.2 4.8-2.5 1.3-1.3 2.3-3 2.9-5.2.6-2.2.6-4.2.1-6-.5-1.8-1.5-3.4-2.8-4.6-1.4-1.2-3-2.1-4.8-2.6l-4.9-1.3-5.6 20.7 4.4 1.2zM1174.2 662l-4.3 16-3.6-1 4.3-16 3.6 1zm-1.3-8.1c.5-.3 1.1-.3 1.7-.2.6.2 1 .5 1.3 1 .3.5.4 1 .3 1.6s-.5 1-1 1.3c-.5.3-1.1.3-1.6.2-.6-.2-1-.5-1.4-1-.3-.5-.4-1-.3-1.6.1-.6.5-1 1-1.3zM1186.6 682.3c-1.1.1-2.1 0-3.2-.3-1.7-.5-3.2-1.2-4.3-2.3-1.1-1.1-1.9-2.3-2.3-3.8-.4-1.5-.4-3 .1-4.7.4-1.6 1.2-3 2.3-4.1 1.1-1.1 2.4-1.8 3.9-2.1 1.5-.4 3-.3 4.5.1 2.4.7 4.3 1.9 5.5 3.6l-2.4 1.9c-.4-.5-.9-1-1.5-1.5s-1.3-.8-2.1-1c-1-.3-1.9-.2-2.8 0-.9.3-1.7.8-2.4 1.5s-1.1 1.6-1.4 2.6c-.3 1-.3 2 0 2.9.3 1 .7 1.8 1.4 2.5s1.6 1.2 2.6 1.5c1.3.4 2.6.3 3.8-.2l1.3 2.7c-.9.4-1.9.7-3 .7zM1206.3 683.4l.9 3.1c-1 .3-2 .5-3.1.6-1.1.1-2.1 0-3-.3-1.8-.5-3.2-1.3-4.4-2.3-1.1-1.1-1.9-2.4-2.3-3.9-.4-1.5-.3-3 .1-4.7.4-1.6 1.2-2.9 2.3-4s2.5-1.8 4.1-2.2c1.6-.4 3.2-.4 4.8.1 2.1.6 3.7 1.6 4.7 3.2 1.1 1.6 1.6 3.6 1.5 5.9l-13.9 1c.2.9.7 1.7 1.4 2.4s1.5 1.1 2.5 1.4c1.5.4 2.9.2 4.4-.3zm-5.6-10.3c-1.2.8-2.1 2-2.5 3.6-.1.4-.2.7-.2.9l10.2-.9c-.2-1-.5-1.8-1.1-2.6-.6-.7-1.4-1.2-2.4-1.5-1.4-.5-2.8-.3-4 .5z" transform="translate(-969.996 -573.995)"/></g><path class="st3" d="M750 342.6L624.4 309l1.3-4.8L747 336.6l32.3-120.7 4.3 1.2L750 342.6z" transform="translate(-496 -161.995)"/></svg>