<svg xmlns="http://www.w3.org/2000/svg" viewBox="0 0 287.612 180.613">
  <defs>
    <style>
      .cls-1 {
        fill: #4fc59a;
      }

      .cls-2 {
        fill: #fff;
        font-size: 40px;
        font-family: JosefinSans-Regular, Josefin Sans;
      }

      .cls-3 {
        fill: #3f0d8c;
      }

      .cls-4 {
        fill: #f4554e;
      }
    </style>
  </defs>
  <g id="Group_18" data-name="Group 18" transform="translate(-969.996 -573.995)">
    <path id="Subtraction_2" data-name="Subtraction 2" class="cls-1" d="M86.576,166.673H86.57a79.269,79.269,0,0,1-29.23-5.554A79.992,79.992,0,0,1,79.7,6.972c2.345-.205,4.721-.309,7.063-.309A79.283,79.283,0,0,1,116,12.218,79.99,79.99,0,0,1,93.64,166.363C91.3,166.568,88.92,166.672,86.576,166.673ZM155.75,97.3h0l2.63,3.332a2.494,2.494,0,0,0,1.626.986,2.6,2.6,0,0,0,.407.032,2.522,2.522,0,0,0,1.444-.468,2.255,2.255,0,0,0,1.013-1.541,2.4,2.4,0,0,0-.554-1.869l-2.936-3.705a18.492,18.492,0,0,0,3.852-7.449,2.223,2.223,0,0,0-.247-2.023,2.451,2.451,0,0,0-1.665-.993,2.787,2.787,0,0,0-.434-.035,2.508,2.508,0,0,0-2.47,2,14.735,14.735,0,0,1-2.1,4.568l-4.107-5.268a11.635,11.635,0,0,0,4.175-2.578,6.647,6.647,0,0,0,1.792-3.644,5.892,5.892,0,0,0-1.246-4.916,7.974,7.974,0,0,0-5.062-2.563,11.818,11.818,0,0,0-1.841-.151,9.189,9.189,0,0,0-2.5.334,6.824,6.824,0,0,0-3.246,1.957,6.457,6.457,0,0,0-1.593,3.413,6.9,6.9,0,0,0,.208,3.03,11.673,11.673,0,0,0,1.632,3.254,12.771,12.771,0,0,0-4.788,2.867,7.671,7.671,0,0,0-2.047,4.232,6.945,6.945,0,0,0,.6,4.247,8.328,8.328,0,0,0,3.061,3.3,12.775,12.775,0,0,0,4.94,1.795,12.479,12.479,0,0,0,1.948.154,12.856,12.856,0,0,0,2.9-.338,14.516,14.516,0,0,0,4.6-1.963Zm-7.319-2.262a7.3,7.3,0,0,1-1.137-.09,4.845,4.845,0,0,1-2.987-1.465,3.336,3.336,0,0,1-.743-2.852c.295-1.861,1.538-3.259,3.7-4.153l5.628,7.169A8.37,8.37,0,0,1,148.431,95.041Zm1.088-13.629h0a10.228,10.228,0,0,1-1.293-2.189,3.255,3.255,0,0,1-.2-1.691,2.81,2.81,0,0,1,1.119-1.949,2.7,2.7,0,0,1,1.6-.492,3.747,3.747,0,0,1,.581.048,2.433,2.433,0,0,1,1.685,1,2.6,2.6,0,0,1,.4,1.966,3.094,3.094,0,0,1-1.064,1.857,8.612,8.612,0,0,1-2.822,1.456Z" transform="translate(963.332 567.332)"/>
    <text id="Slice" class="cls-2" transform="translate(1051.22 667.947) rotate(-5)"><tspan x="-41.36" y="0">Slice</tspan></text>
    <rect id="Rectangle_12" data-name="Rectangle 12" class="cls-3" width="130" height="130" transform="matrix(0.966, 0.259, -0.259, 0.966, 1132.038, 595.392)"/>
    <path id="Subtraction_3" data-name="Subtraction 3" class="cls-4" d="M125.57,159.218h0L0,125.571,12.977,77.138c.4.1.826.184,1.261.253a12.516,12.516,0,0,0,1.946.153,12.879,12.879,0,0,0,2.9-.338,14.5,14.5,0,0,0,4.6-1.964l2.631,3.333a2.494,2.494,0,0,0,1.626.986,2.639,2.639,0,0,0,.408.032,2.516,2.516,0,0,0,1.443-.468,2.254,2.254,0,0,0,1.013-1.541,2.406,2.406,0,0,0-.553-1.869l-2.937-3.705a18.5,18.5,0,0,0,3.853-7.448,2.23,2.23,0,0,0-.247-2.024,2.455,2.455,0,0,0-1.666-.993,2.785,2.785,0,0,0-.434-.035,2.508,2.508,0,0,0-2.47,2,14.722,14.722,0,0,1-2.1,4.568l-4.107-5.267a11.651,11.651,0,0,0,4.175-2.579,6.653,6.653,0,0,0,1.792-3.645,5.885,5.885,0,0,0-1.247-4.915,7.638,7.638,0,0,0-4.417-2.445L33.647,0,159.217,33.647,125.571,159.217ZM16.372,72.981a7.3,7.3,0,0,1-1.137-.09,6.913,6.913,0,0,1-1.052-.248l1.9-7.1,4.744,6.042A8.37,8.37,0,0,1,16.372,72.981Zm1.4-13.74v0l1.643-6.134a2.394,2.394,0,0,1,1.531.967,2.6,2.6,0,0,1,.4,1.967A3.089,3.089,0,0,1,20.282,57.9a8.044,8.044,0,0,1-2.508,1.344Z" transform="translate(1095.391 589.392)"/>
    <text id="Dice" class="cls-2" transform="matrix(0.966, 0.259, -0.259, 0.966, 1172.412, 678.659)"><tspan x="-39.7" y="0">Dice</tspan></text>
    <path id="Subtraction_1" data-name="Subtraction 1" class="cls-3" d="M128.57,165.217,3,131.57l1.3-4.848,121.272,32.495L157.918,38.495l4.3,1.152L128.57,165.217h0Z" transform="translate(1095.391 589.392)"/>
  </g>
</svg>
